<?xml version="1.0" encoding="UTF-8"?>
<svg id="Camada_2" data-name="Camada 2" xmlns="http://www.w3.org/2000/svg" viewBox="0 0 497.41 106.7">
  <defs>
    <style>
      .cls-1 {
        fill: #1d1d1b;
        stroke: #1d1d1b;
        stroke-miterlimit: 10;
        stroke-width: 2px;
      }
    </style>
  </defs>
  <g id="Camada_1-2" data-name="Camada 1">
    <g>
      <path class="cls-1" d="M1.03,3.42h22.09c2.4,15.23,1.25,30.46-.19,45.69-1.69,18.25,11.04,33.05,28.11,33.05h12.24c-.23,7.04.73,14.07,3.78,21.11-6.35,0-12.7,0-19.03,0-27.89,0-47.35-21.61-47.04-48.27.08-17.19.16-34.39.04-51.58Z"/>
      <path class="cls-1" d="M137.6,3.42h21.64c26.11,33.28-32.09,66.57-5.98,99.85-7.06,0-14.1,0-21.14,0-9.61-13.36-6.77-26.72-1.46-40.08-12.74,0-25.43,0-38.08,0-4.18,13.36-6.42,26.72,1.15,40.08-7.05,0-14.09,0-21.13,0-12.09-26.11,6.44-52.22,7.56-78.33.94-11.89,6.1-21.52,17.89-21.52t0,0c7.3,12.89,5.47,25.77,1.59,38.66h39.99c4.94-12.89,7.25-25.77-2.02-38.66Z"/>
      <path class="cls-1" d="M181.64,99.21c-10.18-4.33-18.1-10.44-21.21-18.33-3.24-7.89-1.2-17.07,4.08-27.53,5.28-10.46,11.39-19.64,16.29-27.53,5.03-7.89,8.66-14,13.43-18.33,4.75-4.33,10.84-6.49,20.82-6.49,9.81,0,21.16,2.16,31.67,6.49,10.46,4.33,18.79,10.44,21.92,18.33,3.28,7.89.77,17.07-5.18,27.53-5.96,10.46-12.53,19.64-17.39,27.53-5.01,7.89-8.23,14-12.72,18.33-4.44,4.33-10.46,6.49-20.43,6.49-9.8,0-21.07-2.16-31.28-6.49ZM217.39,80.95c4.49-2.61,8.51-6.3,12.72-11.05,4.18-4.75,8.29-10.27,11.83-16.55,3.54-6.28,5.33-11.79,4.87-16.55-.43-4.75-2.97-8.44-6.96-11.05-4.01-2.61-9.05-3.92-14.61-3.92-5.6,0-10.42,1.31-14.96,3.92-4.55,2.62-8.6,6.3-12.75,11.05-4.12,4.76-8.06,10.27-11.37,16.55-3.31,6.28-4.93,11.79-4.42,16.55.49,4.76,2.96,8.44,6.81,11.05,3.86,2.62,8.75,3.92,14.18,3.92,5.46,0,10.17-1.31,14.65-3.92Z"/>
      <path class="cls-1" d="M342.59,3.42c5.36,6.8,7.19,13.6,6.92,20.4-9.05,0-18.14,0-27.29,0-1.12,26.48-36.55,52.97-13.98,79.45-7.22,0-14.44,0-21.65,0-23.44-26.48,13.35-52.97,14.52-79.45-9.18,0-18.4,0-27.67,0,0,0,0,0,0,0,1.01-11.27,1.19-20.4,12.38-20.4h56.76Z"/>
      <path class="cls-1" d="M353.42,101.85c-8.72-2.47-16.92-5.94-23.3-10.41,2.38-5.66,6.69-11.32,11.92-16.97,6.76,6.94,17.16,10.41,28.44,10.41,5.69,0,10.17-1,13.64-3,3.47-2,5.42-4.71,6.12-8.13.66-3.23-.17-5.75-2.68-7.56-2.51-1.8-6.9-3.09-13.22-3.85-12.21-1.52-20.13-4.71-23.66-9.56-3.67-4.85-2.74-11.79-.35-20.83,1.54-6.08,3.1-11.46,5.06-16.12,1.98-4.66,4.24-8.27,8.15-10.84,3.87-2.57,9.28-3.85,16.71-3.85,6.34,0,13.35,1,20.43,3,.07.02.14.04.21.06,10.89,2.97,17.5,13.61,11.85,21.63-.68,1.04-1.39,2.09-2.13,3.13-6.11-5.42-13.9-8.13-22.1-8.13-5.09,0-9.08.95-12.18,2.85-3.11,1.9-4.87,4.47-5.58,7.7-.69,3.14-.16,5.56,1.95,7.27,2.1,1.71,6.12,3,12.14,3.85,11.58,1.52,19.49,4.87,23.9,10.06,4.46,5.18,5.24,12.29,3.66,21.33-1.05,6.28-2.9,11.82-5.63,16.62-2.74,4.8-6.06,8.51-10.7,11.13-4.64,2.61-10.34,3.92-18.01,3.92-7.54,0-15.88-1.24-24.63-3.71Z"/>
      <path class="cls-1" d="M441.48,83.59h54.84c0,6.56.02,13.12.06,19.69-24.5,0-48.91,0-73.22,0-9.11-20.1-.46-40.2,4.51-60.3,6.75-21.85,15.96-39.56,37.63-39.56h29.73c.12,6.51.16,13.03.16,19.54h-26.46c-10.23,0-18.64,9.07-20.94,20.26,0,0,0,0,0,0,14.99,0,29.91,0,44.78,0-.13,6.28-.28,12.55-.41,18.83h-48.16c-1.38,7.18-2.46,14.36-2.51,21.54Z"/>
    </g>
  </g>
</svg>