<?xml version="1.0" encoding="UTF-8"?>
<svg id="Camada_2" data-name="Camada 2" xmlns="http://www.w3.org/2000/svg" viewBox="0 0 810.33 467.74">
  <defs>
    <style>
      .cls-1 {
        fill: #f9b233;
      }

      .cls-1, .cls-2 {
        stroke-width: 0px;
      }

      .cls-2 {
        fill: #000000;
      }
    </style>
  </defs>
  <g id="Camada_1-2" data-name="Camada 1">
    <path class="cls-1" d="M639.45,147.87c0,34.49-11.81,66.23-31.59,91.37-8.85,11.23-19.26,21.14-30.93,29.39l-28.19-120.76-34.93,53.95-57.96,89.57c-8.44-2.07-16.58-4.89-24.38-8.37v-91l-41.6,27.94-30.26-138.88c7.01-13.83,16.13-26.41,26.95-37.31C413.35,16.75,450.51,0,491.57,0c81.67,0,147.87,66.21,147.87,147.87Z"/>
    <g>
      <path class="cls-2" d="M202.65,172.3c-.12-.08-.25-.17-.39-.23.08.02.17.06.25.12.06.04.1.06.15.1Z"/>
      <path class="cls-2" d="M809.23,465.05c-1.18,1.7-3.11,2.69-5.12,2.69-.44,0-.87-.06-1.31-.15l-115-24.52c-1.76-.39-3.27-1.51-4.15-3.09l-29.91-54.02-119.7,70.37c-2.34,1.39-5.33,1.08-7.34-.75-2.01-1.82-2.59-4.77-1.45-7.23l55.76-119.89-37.89-162.36-26.97,41.66-82.31,127.23c-1.18,1.8-3.15,2.84-5.22,2.84-.58,0-1.18-.08-1.76-.25-2.65-.79-4.46-3.21-4.46-5.97v-125.36l-31.92,21.43c-1.72,1.14-3.88,1.37-5.78.6-1.93-.77-3.32-2.43-3.77-4.44l-33.5-153.7-30.84,47.67c-1.14,1.76-3.11,2.84-5.2,2.84s-4.08-1.08-5.22-2.84l-11.42-17.64-69.09,106.79,135,208.65c1.62,2.49,1.24,5.78-.91,7.86-1.18,1.14-2.74,1.74-4.31,1.74-1.24,0-2.49-.37-3.57-1.14l-158.84-111.81c-1.68-1.18-2.67-3.13-2.63-5.2l2.09-107.93-77.94,120.43c-1.14,1.78-3.11,2.84-5.22,2.84s-4.08-1.06-5.22-2.82l-14.3-22.1L11.68,439.99c-1.14,2.07-3.27,3.23-5.47,3.23-1.02,0-2.03-.25-2.98-.77-3.01-1.66-4.1-5.43-2.47-8.44l83.16-151.65c1.04-1.91,3.03-3.13,5.22-3.21,2.26-.1,4.25.99,5.45,2.82l14.74,22.78,84.57-130.71c.08-.15.19-.29.31-.41.19-.25.37-.48.6-.68.44-.41.93-.79,1.49-1.06.15-.08.29-.15.44-.21.12-.06.25-.1.37-.12.17-.08.33-.12.5-.17h.02c.25-.06.5-.1.73-.14.25-.02.5-.04.77-.04.29,0,.58.02.87.06.25.04.52.08.77.17.1.02.19.04.27.08.19.04.37.1.54.21.25.08.48.21.68.35.14.06.27.15.39.23.66.46,1.24,1.04,1.7,1.74l13.91,21.49,71.28-110.17c1.14-1.76,3.11-2.84,5.2-2.84s4.08,1.08,5.22,2.84l11.42,17.64,33.72-52.15,19.24-29.72c1.16-1.78,3.11-2.84,5.22-2.84s4.08,1.06,5.22,2.84l63.8,98.58,7.25-11.21c1.16-1.76,3.11-2.84,5.22-2.84s4.08,1.08,5.22,2.84l54.64,84.45,29.7-45.89c.23-.33.48-.64.75-.91.15-.17.31-.31.48-.46.23-.21.48-.37.75-.54.25-.17.52-.31.81-.41l.02-.02h.02c.19-.08.37-.17.58-.21.19-.06.35-.1.54-.15.06-.02.12-.04.17-.04.17-.02.35-.06.52-.06.21-.04.41-.04.62-.04.29,0,.56.02.85.06.29.04.56.1.85.19.02,0,.04,0,.06.02.27.06.52.17.77.29h.04c.25.12.5.25.73.39.02.02.06.04.1.06.21.15.41.29.6.46.19.15.35.31.5.48.27.27.5.56.7.89l80.01,123.64,23.24-35.94c1.16-1.78,3.11-2.84,5.22-2.84s4.08,1.06,5.22,2.84l144.56,223.39c1.37,2.09,1.33,4.83-.1,6.9Z"/>
    </g>
  </g>
</svg>