<?xml version="1.0" encoding="UTF-8"?>
<svg id="Camada_2" data-name="Camada 2" xmlns="http://www.w3.org/2000/svg" viewBox="0 0 390.94 294.13">
  <defs>
    <style>
      .cls-1 {
        fill: none;
      }

      .cls-1, .cls-2 {
        stroke-linecap: round;
        stroke-linejoin: round;
        stroke-width: 6px;
      }

      .cls-1, .cls-2, .cls-3 {
        stroke: #000;
      }

      .cls-4 {
        fill: #f9b233;
        stroke-width: 0px;
      }

      .cls-2, .cls-3 {
        fill: #000;
      }

      .cls-3 {
        stroke-miterlimit: 10;
        stroke-width: 2px;
      }
    </style>
  </defs>
  <g id="Camada_1-2" data-name="Camada 1">
    <path class="cls-4" d="M307.11,71.34c0,16.64-5.7,31.95-15.24,44.08-4.27,5.42-9.29,10.2-14.92,14.18l-13.6-58.26-16.85,26.03-27.96,43.21c-4.07-1-8-2.36-11.76-4.04v-43.9l-20.07,13.48-14.6-67c3.38-6.67,7.78-12.74,13-18C198.03,8.08,215.96,0,235.77,0c39.4,0,71.34,31.94,71.34,71.34Z"/>
    <polyline class="cls-1" points="3 209.59 43.11 136.44 52.75 151.31 96.06 84.36"/>
    <polygon class="cls-2" points="246.5 97.37 218.54 140.58 206.78 158.75 206.78 92.64 186.71 106.12 172.11 39.12 169.02 24.93 178.3 10.59 185.11 21.12 211.59 62.04 217.62 52.74 246.5 97.37"/>
    <polyline class="cls-1" points="105.29 98.62 142.2 41.58 150.22 53.98 169.02 24.93"/>
    <polygon class="cls-2" points="171.48 200.91 94.85 146.97 96.06 84.36 105.29 98.62 171.48 200.91"/>
    <line class="cls-1" x1="263.35" y1="71.34" x2="246.5" y2="97.37"/>
    <polygon class="cls-2" points="387.94 221.42 332.45 209.58 316.53 180.82 256.13 216.34 283.47 157.55 276.95 129.6 263.35 71.34 291.87 115.42 304.46 134.88 318.2 113.65 387.94 221.42"/>
    <g>
      <path class="cls-3" d="M34.32,224.39h14.89c1.58,10.24.8,20.47-.18,30.71-1.15,12.27,7.4,22.21,18.87,22.21,2.74,0,5.48,0,8.23,0-.18,4.73.44,9.46,2.42,14.19-4.26,0-8.51,0-12.76,0-18.65,0-31.75-14.52-31.51-32.44.08-11.55.16-23.11.04-34.66Z"/>
      <path class="cls-3" d="M126.31,224.39h14.56c16.93,22.37-21.43,44.74-4.5,67.1-4.74,0-9.47,0-14.19,0-6.23-8.98-4.3-17.96-.74-26.94-8.56,0-17.1,0-25.6,0-2.8,8.98-4.33,17.96.59,26.94-4.73,0-9.45,0-14.17,0-7.86-17.55,4.42-35.09,5.24-52.64.66-7.99,4.24-14.46,12.19-14.46t0,0c4.74,8.66,3.49,17.32.88,25.98,8.99,0,17.94,0,26.87,0,3.31-8.66,4.9-17.32-1.12-25.98Z"/>
      <path class="cls-3" d="M155.5,288.77c-6.76-2.91-12.01-7.01-14.07-12.32-2.14-5.3-.78-11.47,2.74-18.5,3.53-7.03,7.62-13.2,10.95-18.5,3.41-5.3,5.93-9.41,9.22-12.32,3.27-2.91,7.43-4.36,14.13-4.36,6.59,0,14.17,1.45,21.15,4.36,6.95,2.91,12.47,7.01,14.53,12.32,2.16,5.31.49,11.47-3.48,18.5-3.97,7.03-8.38,13.2-11.68,18.5-3.41,5.31-5.65,9.41-8.75,12.32-3.07,2.91-7.17,4.36-13.86,4.36-6.58,0-14.09-1.45-20.88-4.36ZM179.72,276.49c3.03-1.76,5.75-4.23,8.58-7.43,2.81-3.19,5.56-6.9,7.92-11.12,2.36-4.22,3.55-7.92,3.25-11.12-.29-3.19-1.98-5.67-4.65-7.43-2.68-1.76-6.06-2.64-9.8-2.64-3.76,0-7.01.88-10.07,2.64-3.07,1.76-5.8,4.23-8.59,7.43-2.77,3.2-5.41,6.9-7.62,11.12-2.21,4.22-3.29,7.92-2.94,11.12.33,3.2,1.97,5.67,4.55,7.43,2.58,1.76,5.86,2.64,9.5,2.64,3.67,0,6.84-.88,9.87-2.64Z"/>
      <path class="cls-3" d="M264.1,224.39c3.48,4.57,4.63,9.14,4.42,13.71h-18.34c-.9,17.8-24.29,35.6-9.66,53.4-4.86,0-9.71,0-14.56,0-15.19-17.8,9.1-35.6,10.03-53.4h-18.6c.74-7.57,1.07-13.71,8.59-13.71h38.12Z"/>
      <path class="cls-3" d="M270.93,290.54c-5.82-1.66-11.28-3.99-15.53-7,1.66-3.8,4.58-7.6,8.1-11.41,4.53,4.67,11.49,7,19.07,7,3.83,0,6.84-.67,9.18-2.01,2.34-1.34,3.66-3.16,4.13-5.46.45-2.17-.11-3.87-1.8-5.08-1.69-1.21-4.64-2.08-8.89-2.59-8.21-1.02-13.53-3.16-15.91-6.42-2.47-3.26-1.87-7.92-.25-14,1.04-4.09,2.12-7.7,3.48-10.83,1.37-3.13,2.94-5.56,5.61-7.29,2.64-1.73,6.29-2.59,11.27-2.59,4.25,0,8.94.67,13.66,2.01.05.01.09.03.14.04,7.26,1.99,11.62,9.15,7.8,14.54-.46.7-.94,1.4-1.44,2.1-4.1-3.64-9.31-5.46-14.83-5.46-3.42,0-6.11.64-8.2,1.92-2.1,1.28-3.29,3-3.77,5.18-.47,2.11-.11,3.74,1.31,4.89,1.41,1.15,4.12,2.01,8.16,2.59,7.78,1.02,13.11,3.28,16.08,6.76,3,3.48,3.53,8.26,2.46,14.33-.71,4.22-1.97,7.94-3.84,11.17-1.87,3.23-4.14,5.72-7.3,7.48-3.16,1.76-7.02,2.64-12.19,2.64-5.07,0-10.67-.83-16.52-2.49Z"/>
      <path class="cls-3" d="M330.28,278.27c12.18,0,24.46,0,36.85,0,0,4.41.01,8.82.06,13.23-16.52,0-32.97,0-49.34,0-5.93-13.51-.17-27.01,3.17-40.52,4.52-14.68,10.86-26.58,25.37-26.58h19.92c.09,4.38.12,8.76.12,13.13h-17.79c-6.88,0-12.55,6.09-14.1,13.61,0,0,0,0,0,0,10.08,0,20.11,0,30.1,0-.09,4.22-.21,8.44-.3,12.65h-32.35c-.93,4.83-1.66,9.65-1.71,14.48Z"/>
    </g>
  </g>
</svg>